<?xml version="1.0" encoding="utf-8"?>
<!-- Generator: Adobe Illustrator 18.1.0, SVG Export Plug-In . SVG Version: 6.00 Build 0)  -->
<!DOCTYPE svg PUBLIC "-//W3C//DTD SVG 1.1//EN" "http://www.w3.org/Graphics/SVG/1.1/DTD/svg11.dtd">
<svg version="1.1" id="Layer_1" xmlns="http://www.w3.org/2000/svg" xmlns:xlink="http://www.w3.org/1999/xlink" x="0px" y="0px"
	 viewBox="7 78 593 605" enable-background="new 7 78 593 605" xml:space="preserve">
<g>
	<circle fill="#FBE3BB" cx="299.27" cy="379.73" r="280.54"/>
	<g>
		<g>
			<defs>
				<circle id="SVGID_1_" cx="299.27" cy="379.73" r="280.54"/>
			</defs>
			<clipPath id="SVGID_2_">
				<use xlink:href="#SVGID_1_"  overflow="visible"/>
			</clipPath>
			<g clip-path="url(#SVGID_2_)">
				<path fill="#FFFFFF" d="M181.46,654.63c0,7.74-6.26,14.04-14.04,14.04c-7.78,0-14.04-6.26-14.04-14.04V197.37
					c0-7.74,6.26-14.04,14.04-14.04c7.78,0,14.04,6.26,14.04,14.04V654.63z"/>
			</g>
		</g>
	</g>
	<polygon fill="#2A81BA" points="579.81,508.73 355.36,508.73 355.36,239.46 579.81,239.46 540.54,374.1 	"/>
	<path fill="#176C9A" d="M355.36,508.73V250.69l50.5-44.87V463.9L355.36,508.73z"/>
	<path opacity="0.6" fill="#FFFFFF" enable-background="new    " d="M450.84,343.23l-60.55,20.34l-1.64,61.02l-39.08-48.42
		l-61.53,17.37l36.42-50.26l-36.42-50.26l61.57,17.37l39.04-48.46l1.64,61.02L450.84,343.23z"/>
	<rect x="181.46" y="194.56" fill="#3C97D3" width="224.41" height="269.31"/>
	<polygon fill="#FFFFFF" points="405.86,268.37 372.07,310.34 310.5,292.97 346.91,343.23 310.5,393.54 372.07,376.17 405.86,418.1 
			"/>
</g>
</svg>
