<?xml version="1.0" encoding="utf-8"?>
<!-- Generator: Adobe Illustrator 18.1.0, SVG Export Plug-In . SVG Version: 6.00 Build 0)  -->
<!DOCTYPE svg PUBLIC "-//W3C//DTD SVG 1.1//EN" "http://www.w3.org/Graphics/SVG/1.1/DTD/svg11.dtd">
<svg version="1.1" id="Layer_1" xmlns="http://www.w3.org/2000/svg" xmlns:xlink="http://www.w3.org/1999/xlink" x="0px" y="0px"
	 viewBox="0 96 602 599" enable-background="new 0 96 602 599" xml:space="preserve">
<circle fill="#FBE3BB" cx="299.27" cy="399.6" r="280.34"/>
<g>
	<g>
		<defs>
			<path id="SVGID_1_" d="M579.61,399.6c0,154.82-125.52,280.34-280.34,280.34S18.93,554.42,18.93,399.6
				s125.52-280.34,280.34-280.34h280.34V399.6z"/>
		</defs>
		<clipPath id="SVGID_2_">
			<use xlink:href="#SVGID_1_"  overflow="visible"/>
		</clipPath>
		<g clip-path="url(#SVGID_2_)">
			<g>
				<g>
					<defs>
						<path id="SVGID_3_" d="M579.61,399.6c0,154.82-125.52,280.34-280.34,280.34S18.93,554.42,18.93,399.6
							s125.52-280.34,280.34-280.34h280.34V399.6z"/>
					</defs>
					<defs>
						<path id="SVGID_4_" d="M579.61,399.6c0,154.82-125.52,280.34-280.34,280.34S18.93,554.42,18.93,399.6
							s125.52-280.34,280.34-280.34h280.34V399.6z"/>
					</defs>
					<defs>
						<path id="SVGID_5_" d="M579.61,399.6c0,154.82-125.52,280.34-280.34,280.34S18.93,554.42,18.93,399.6
							s125.52-280.34,280.34-280.34h280.34V399.6z"/>
					</defs>
					<defs>
						<path id="SVGID_6_" d="M579.61,399.6c0,154.82-125.52,280.34-280.34,280.34S18.93,554.42,18.93,399.6
							s125.52-280.34,280.34-280.34h280.34V399.6z"/>
					</defs>
					<defs>
						<path id="SVGID_7_" d="M579.61,399.6c0,154.82-125.52,280.34-280.34,280.34S18.93,554.42,18.93,399.6
							s125.52-280.34,280.34-280.34h280.34V399.6z"/>
					</defs>
					<defs>
						<path id="SVGID_8_" d="M579.61,399.6c0,154.82-125.52,280.34-280.34,280.34S18.93,554.42,18.93,399.6
							s125.52-280.34,280.34-280.34h280.34V399.6z"/>
					</defs>
					<defs>
						<path id="SVGID_9_" d="M579.61,399.6c0,154.82-125.52,280.34-280.34,280.34S18.93,554.42,18.93,399.6
							s125.52-280.34,280.34-280.34h280.34V399.6z"/>
					</defs>
					<defs>
						<path id="SVGID_10_" d="M579.61,399.6c0,154.82-125.52,280.34-280.34,280.34S18.93,554.42,18.93,399.6
							s125.52-280.34,280.34-280.34h280.34V399.6z"/>
					</defs>
					<defs>
						<path id="SVGID_11_" d="M579.61,399.6c0,154.82-125.52,280.34-280.34,280.34S18.93,554.42,18.93,399.6
							s125.52-280.34,280.34-280.34h280.34V399.6z"/>
					</defs>
					<defs>
						<path id="SVGID_12_" d="M579.61,399.6c0,154.82-125.52,280.34-280.34,280.34S18.93,554.42,18.93,399.6
							s125.52-280.34,280.34-280.34h280.34V399.6z"/>
					</defs>
					<defs>
						<path id="SVGID_13_" d="M579.61,399.6c0,154.82-125.52,280.34-280.34,280.34S18.93,554.42,18.93,399.6
							s125.52-280.34,280.34-280.34h280.34V399.6z"/>
					</defs>
					<defs>
						<path id="SVGID_14_" d="M579.61,399.6c0,154.82-125.52,280.34-280.34,280.34S18.93,554.42,18.93,399.6
							s125.52-280.34,280.34-280.34h280.34V399.6z"/>
					</defs>
					<clipPath id="SVGID_15_">
						<use xlink:href="#SVGID_3_"  overflow="visible"/>
					</clipPath>
					<clipPath id="SVGID_16_" clip-path="url(#SVGID_15_)">
						<use xlink:href="#SVGID_4_"  overflow="visible"/>
					</clipPath>
					<clipPath id="SVGID_17_" clip-path="url(#SVGID_16_)">
						<use xlink:href="#SVGID_5_"  overflow="visible"/>
					</clipPath>
					<clipPath id="SVGID_18_" clip-path="url(#SVGID_17_)">
						<use xlink:href="#SVGID_6_"  overflow="visible"/>
					</clipPath>
					<clipPath id="SVGID_19_" clip-path="url(#SVGID_18_)">
						<use xlink:href="#SVGID_7_"  overflow="visible"/>
					</clipPath>
					<clipPath id="SVGID_20_" clip-path="url(#SVGID_19_)">
						<use xlink:href="#SVGID_8_"  overflow="visible"/>
					</clipPath>
					<clipPath id="SVGID_21_" clip-path="url(#SVGID_20_)">
						<use xlink:href="#SVGID_9_"  overflow="visible"/>
					</clipPath>
					<clipPath id="SVGID_22_" clip-path="url(#SVGID_21_)">
						<use xlink:href="#SVGID_10_"  overflow="visible"/>
					</clipPath>
					<clipPath id="SVGID_23_" clip-path="url(#SVGID_22_)">
						<use xlink:href="#SVGID_11_"  overflow="visible"/>
					</clipPath>
					<clipPath id="SVGID_24_" clip-path="url(#SVGID_23_)">
						<use xlink:href="#SVGID_12_"  overflow="visible"/>
					</clipPath>
					<clipPath id="SVGID_25_" clip-path="url(#SVGID_24_)">
						<use xlink:href="#SVGID_13_"  overflow="visible"/>
					</clipPath>
					<clipPath id="SVGID_26_" clip-path="url(#SVGID_25_)">
						<use xlink:href="#SVGID_14_"  overflow="visible"/>
					</clipPath>
					<path clip-path="url(#SVGID_26_)" fill="#F7F8F8" d="M192.76,228.59c14.32-2.54,22.73-10.95,25.23-25.23
						c2.54,14.32,10.95,22.73,25.23,25.23c-14.28,2.54-22.73,10.95-25.23,25.23C215.45,239.5,207.04,231.09,192.76,228.59z"/>
					<path clip-path="url(#SVGID_26_)" fill="#F7F8F8" d="M417.01,536.93c14.32-2.54,22.73-10.95,25.23-25.23
						c2.54,14.32,10.95,22.73,25.23,25.23c-14.28,2.54-22.73,10.95-25.23,25.23C439.74,547.89,431.33,539.48,417.01,536.93z"/>
					<path clip-path="url(#SVGID_26_)" fill="#F7F8F8" d="M80.62,480.88c14.32-2.54,22.73-10.95,25.23-25.23
						c2.54,14.32,10.95,22.73,25.23,25.23c-14.28,2.54-22.73,10.95-25.23,25.23C103.34,491.79,94.93,483.42,80.62,480.88z"/>
				</g>
				<g>
					<g>
						<defs>
							<path id="SVGID_27_" d="M579.61,399.6c0,154.82-125.52,280.34-280.34,280.34S18.93,554.42,18.93,399.6
								s125.52-280.34,280.34-280.34h280.34V399.6z"/>
						</defs>
						<clipPath id="SVGID_28_">
							<use xlink:href="#SVGID_27_"  overflow="visible"/>
						</clipPath>
						<g clip-path="url(#SVGID_28_)">
							<path fill="#3C97D3" d="M579.61,119.81c-0.86,0.12-0.66,0.31-0.55-0.55c-130.72,16.7-204.85,68.84-246.9,123.53
								c-1.49,1.96-2.97,3.91-4.38,5.87l-0.04,0.04c-45.22,62.27-50.42,127.4-50.89,145.27h-5.59l-5.59,16.82l22.41,22.41
								l16.82-5.59v-5.59c6.45-0.12,20.97-0.63,39.62-4.34l0,0c4.07-1.02,5.24,0.43,5.24,21.16v50.46c0,10.13,5.28,14,10.91,8.37
								c13.57-13.61,16.82-16.94,47.64-47.8c23.31-23.35,26.21-36.96,16.58-62C489.65,351.17,559.62,275.6,579.61,119.81z"/>
							<path fill="#2A81BA" d="M288.09,433.24l-22.41-22.41l5.59-16.82h11.23l22.41,22.41v11.23L288.09,433.24z M310.5,276.23
								c-9.62-3.87-11.23-5.59-22.41-5.59c-11.23,0-23.47,7.74-38.45,22.77c-23.86,23.86-27.19,27.15-47.76,47.72
								c-6.73,6.73,3.6,8.02,18.93,8.02c29.34,0,52.14-0.7,60.51,7.98C292.35,368.5,310.5,276.23,310.5,276.23z"/>
							<path fill="#2A81BA" d="M579.61,119.26c-3.6,27.89-8.76,53.71-15.26,76.71c-5.87-11.03-14.36-24.49-25.23-35.16
								c-12.05-11.89-26.99-20.38-38.25-25.7C534.63,125.36,561.58,121.57,579.61,119.26z"/>
							<path opacity="0.3" fill="#FFFFFF" enable-background="new    " d="M424.87,387.86c9.62,25.03,7.35,38.06-16,61.41
								c-4.73,4.73-43.89,44.04-48.23,48.39c-5.63,5.63-10.72,1.76-10.91-8.37v-3.64c16.82-16.82,54.33-50.11,61.68-63.64
								c4.3-7.9,1.96-20.5,0-28.05c-18.58,9.86-64.58,22.96-66.89,23.7c-17.72,3.64-31.41,3.99-39.62,4.34v-3.68
								c0,0,168.08-54.17,274.75-299.08C559.47,276.5,489.65,351.17,424.87,387.86z"/>
							<path fill="#FFFFFF" d="M453.47,276.23c-20.11,0-36.46-16.35-36.46-36.46s16.35-36.46,36.46-36.46
								c20.11,0,36.46,16.35,36.46,36.46S473.57,276.23,453.47,276.23z"/>
							<path fill="#2A81BA" d="M453.47,208.95c17.02,0,30.82,13.81,30.82,30.82s-13.81,30.82-30.82,30.82s-30.82-13.81-30.82-30.82
								S436.45,208.95,453.47,208.95 M453.47,197.72c-23.2,0-42.05,18.85-42.05,42.05c0,23.2,18.85,42.05,42.05,42.05
								c23.2,0,42.05-18.85,42.05-42.05S476.66,197.72,453.47,197.72z"/>
							<path fill="#D7DCDE" d="M265.63,410.79l22.41,22.41L91.8,635.03L58.16,601.4L265.63,410.79z"/>
							<path fill="#F7F8F8" d="M264.93,410.79l11.23,11.23L60.98,632.26l-16.82-16.82L264.93,410.79z"/>
						</g>
					</g>
				</g>
			</g>
		</g>
	</g>
</g>
</svg>
